<svg width="180" height="57" viewBox="0 0 180 57" fill="none" xmlns="http://www.w3.org/2000/svg">
<path fill-rule="evenodd" clip-rule="evenodd" d="M77.1818 56.4871C76.5627 56.2049 76.0416 55.7422 75.6857 55.1584C75.3266 54.5379 75.1465 53.8286 75.1656 53.1103V47.0762H77.2617V52.8725C77.2617 53.5643 77.4532 54.099 77.8363 54.4763C78.2195 54.8537 78.7675 55.0398 79.4805 55.0346C80.1915 55.0346 80.7409 54.838 81.1227 54.4685C81.5045 54.099 81.6974 53.5565 81.6974 52.8646V47.0762H83.7935V53.1103C83.8126 53.8286 83.6324 54.5379 83.2734 55.1584C82.917 55.7418 82.396 56.2044 81.7772 56.4871C80.3074 57.1056 78.6536 57.1056 77.1837 56.4871H77.1818Z" fill="black"/>
<path fill-rule="evenodd" clip-rule="evenodd" d="M87.2454 56.4932C86.5331 56.2622 85.8777 55.881 85.3227 55.3748L86.6181 53.7847C87.0627 54.1874 87.5763 54.5051 88.1337 54.7222C88.6772 54.9322 89.2544 55.0395 89.8363 55.0387C90.3157 55.0607 90.7917 54.9485 91.2117 54.7144C91.5584 54.4995 91.7318 54.2374 91.7318 53.9282C91.7301 53.6929 91.6153 53.473 91.424 53.3385C91.1095 53.1332 90.7546 52.9991 90.3837 52.9454L88.3266 52.5523C87.4357 52.3819 86.7701 52.0694 86.3298 51.6147C85.891 51.1654 85.6526 50.555 85.6694 49.9244C85.6577 49.3469 85.8442 48.783 86.1974 48.3284C86.5824 47.8502 87.0906 47.4884 87.6662 47.2827C88.3506 47.0279 89.0757 46.9026 89.8052 46.9132C90.532 46.9114 91.2548 47.0228 91.948 47.2434C92.6117 47.4474 93.2211 47.8001 93.7305 48.2753L92.5305 49.8242C91.7539 49.1474 90.765 48.77 89.7389 48.7588C89.2684 48.741 88.8006 48.8381 88.3753 49.0419C88.0155 49.2306 87.835 49.469 87.8337 49.7573C87.8405 49.9581 87.9428 50.1432 88.1084 50.2546C88.4283 50.4494 88.7855 50.5733 89.1565 50.6182L91.0655 50.97C92.011 51.1496 92.7214 51.4883 93.1967 51.9862C93.6623 52.4603 93.9193 53.1035 93.9097 53.7709C93.9212 54.3643 93.7436 54.9458 93.4032 55.4298C93.0382 55.9262 92.54 56.3068 91.9675 56.5266C91.2809 56.7979 90.5483 56.9315 89.811 56.9197C88.9381 56.9248 88.0706 56.7806 87.2454 56.4932Z" fill="black"/>
<path d="M102.025 54.6198H97.7786L96.9779 56.7819H94.8019L98.6201 47.082H101.197L105.018 56.7819H102.826L102.025 54.6198ZM101.345 52.7879L99.9019 48.9414L98.4604 52.7958L101.345 52.7879Z" fill="black"/>
<path fill-rule="evenodd" clip-rule="evenodd" d="M157.882 28.7222C156.211 27.8538 155.16 26.116 155.16 24.2192C155.16 22.3225 156.211 20.5847 157.882 19.7162C158.757 19.2601 159.73 19.0285 160.714 19.0421C161.488 19.0366 162.256 19.1779 162.978 19.4588C163.635 19.7019 164.222 20.1073 164.684 20.6381L163.377 22.1083C163.036 21.7348 162.625 21.4335 162.168 21.2218C161.73 21.0363 161.261 20.9427 160.786 20.9467C160.175 20.9366 159.571 21.0855 159.033 21.3791C158.527 21.6552 158.103 22.0622 157.804 22.5584C157.504 23.0603 157.348 23.6369 157.356 24.2232C157.337 25.414 157.986 26.5134 159.033 27.0633C159.58 27.3561 160.191 27.5048 160.81 27.4958C161.806 27.5138 162.763 27.1079 163.447 26.3774L164.749 27.8122C164.287 28.355 163.692 28.7658 163.023 29.0033C162.298 29.2702 161.532 29.4033 160.761 29.3964C159.761 29.4121 158.773 29.1807 157.882 28.7222Z" fill="black"/>
<path d="M168.401 28.7359C167.615 28.3124 166.963 27.675 166.518 26.8961C165.608 25.2286 165.608 23.2076 166.518 21.5401C166.963 20.7618 167.615 20.1251 168.401 19.7024C170.115 18.8238 172.142 18.8238 173.856 19.7024C174.642 20.1251 175.294 20.7618 175.74 21.5401C176.649 23.2076 176.649 25.2286 175.74 26.8961C175.295 27.675 174.642 28.3124 173.856 28.7359C172.141 29.6115 170.116 29.6115 168.401 28.7359ZM172.73 27.0573C173.197 26.7831 173.579 26.3829 173.833 25.9016C174.362 24.843 174.362 23.5933 173.833 22.5347C173.578 22.0544 173.196 21.6549 172.73 21.3809C171.735 20.8254 170.528 20.8254 169.533 21.3809C169.067 21.6549 168.685 22.0544 168.431 22.5347C167.901 23.5933 167.901 24.843 168.431 25.9016C168.684 26.3829 169.066 26.7831 169.533 27.0573C170.528 27.6106 171.735 27.6106 172.73 27.0573Z" fill="black"/>
<path fill-rule="evenodd" clip-rule="evenodd" d="M177.793 29.1525C177.326 28.6245 177.326 27.8269 177.793 27.299C178.326 26.8352 179.116 26.8352 179.649 27.299C180.116 27.8269 180.116 28.6245 179.649 29.1525C179.119 29.6239 178.323 29.6239 177.793 29.1525Z" fill="black"/>
<path fill-rule="evenodd" clip-rule="evenodd" d="M142.463 6.53373C141.51 7.31993 140.869 8.42259 140.082 9.38569V9.58224C143.725 10.4117 147.146 9.2088 150.134 7.51845C152.955 5.82811 155.747 3.17859 157.356 0.33252C153.121 4.26355 148.395 7.13124 142.463 6.53373Z" fill="black"/>
<path fill-rule="evenodd" clip-rule="evenodd" d="M62.8558 33.6476L50.9376 36.6942C48.9389 37.1266 46.837 37.4234 44.6376 37.1915C42.3 36.9261 39.9428 35.5011 38.926 33.1838C37.2506 28.5805 39.187 23.7119 41.0922 19.7042C44.1448 13.8785 48.4773 8.1077 53.961 3.70887C55.6656 2.61604 57.5026 1.29128 59.6708 1.78856C60.0604 1.95366 60.2552 2.37821 60.4247 2.7497C60.5179 3.19229 60.41 3.65377 60.1305 4.00763C59.436 3.89908 58.7336 4.14759 58.2584 4.67001C57.635 5.33239 57.2104 6.19328 57.374 7.12101C57.512 7.47525 57.85 7.70887 58.2273 7.71066C58.9831 7.64187 59.6065 7.01487 60.0662 6.38394C60.9506 5.02577 61.8039 3.07204 60.8454 1.4839C60.4558 0.786145 59.7604 0.489352 59.1039 0.290835C55.9286 -6.1959e-05 53.2032 1.38956 50.6493 2.84797C43.9831 7.12101 37.987 13.9767 34.9909 20.9976C33.1188 25.4671 31.8389 32.3229 35.6805 36.3286C38.6669 39.6051 43.9188 39.3064 47.8909 38.3138L58.2311 35.7311C61.7104 35.0333 66.2065 34.6048 69.3234 36.3935C70.4944 37.0663 71.5125 37.9796 72.3117 39.0744C72.9682 38.3138 73.7571 37.5531 74.6104 37.1561C78.7773 35.6977 82.987 37.4529 86.5578 39.1098C84.1928 36.6903 81.4695 35.0019 78.6136 33.7439C73.8876 31.7234 67.7493 32.4526 62.8597 33.6437" fill="black"/>
<path d="M148.625 29.1782C147.082 31.4307 145.508 34.0134 143.045 35.5013C142.754 35.6527 142.397 35.5535 142.223 35.2733C141.927 34.7092 142.323 34.1451 142.453 33.6478L148.103 23.3819L150.195 19.5393L150.131 19.441L147.142 19.4076C146.521 19.5059 146.421 20.3019 146.026 20.699H145.909C145.714 20.3334 145.286 20.0032 144.956 19.7712C143.94 19.1423 142.496 19.4725 141.544 20.0032C136.49 23.3819 133.732 28.8126 130.44 33.5161C129.588 34.4084 128.636 36.0988 127.258 35.5701C126.832 35.2379 126.832 34.7839 126.766 34.2768C127.027 31.5624 127.979 29.1448 129.031 26.7921C131.477 25.0116 133.771 23.0288 135.89 20.8641C139.202 17.4519 142.455 13.9848 144.949 10.1992C144.703 10.0893 144.419 10.1145 144.197 10.266C140.192 15.4668 135.395 20.9309 130.112 25.0074L129.918 25.0428C131.361 21.6306 133.397 18.5172 135.3 15.337C138.39 10.667 141.571 5.76496 146.197 1.99117C146.823 1.62754 147.612 0.83151 148.34 1.42903C148.57 1.95775 148.406 2.58868 148.208 3.08399C147.947 4.04513 147.257 4.87261 147.06 5.83572C147.355 5.80427 147.684 5.80427 147.814 5.53696L148.866 3.28644C149.194 2.45896 149.451 1.26786 148.833 0.471821C148.504 0.139648 148.044 0.173062 147.619 0.139648C146.042 0.438407 144.697 1.2993 143.384 2.26044C134.949 9.18103 129.269 18.0259 125.073 27.0987C124.284 27.4643 123.397 27.6883 122.54 27.5625C123.199 25.8408 124.085 24.1858 124.149 22.2301C124.149 21.1373 123.919 20.0444 122.901 19.5472C121.621 19.0165 120.343 19.5825 119.225 20.0779C114.205 22.9573 110.887 28.1247 109.182 33.2232C108.82 34.8821 108.36 37.168 109.806 38.426C110.723 39.1217 112.134 38.9213 113.086 38.4594C117.158 36.5037 119.949 32.1324 122.014 28.4234C122.868 28.3586 123.69 28.2583 124.51 28.1247L124.607 28.1935L123.506 31.4307C123.117 33.5928 121.769 36.3975 123.606 38.2844C124.097 38.7503 124.788 38.8151 125.445 38.7503C127.677 38.1862 129.251 35.9651 130.927 34.3102C130.827 35.1396 130.537 36.0005 130.664 36.8929C130.763 37.6555 131.156 38.4515 131.944 38.7503C134.636 39.4107 136.373 36.8614 138.247 35.1396L138.279 35.173C137.982 36.1676 137.624 37.5906 138.442 38.4515C139.027 39.0785 140.084 38.882 140.78 38.6146C144.522 36.7277 147.115 32.7181 149.312 29.3767V29.0445C149.084 29.0131 148.79 28.9777 148.625 29.1782ZM119.64 30.9314C118.59 32.5215 117.179 34.2453 115.504 35.2379C115.044 35.405 114.454 35.5701 114.027 35.3047C113.652 35.131 113.382 34.7846 113.305 34.375C113.141 31.1988 114.98 28.6141 116.616 26.0314L117.436 25.0388C117.995 25.825 118.488 26.9257 119.472 27.4879L121.079 28.2505C120.853 29.2097 120.166 30.0725 119.64 30.9314ZM121.588 27.3935C120.422 27.2386 119.412 26.5051 118.895 25.4398C118.369 24.345 118.666 22.9868 119.419 22.0984C120.275 21.0704 121.981 19.8813 122.998 21.3122C123.711 23.4821 122.532 25.5695 121.578 27.3896L121.588 27.3935ZM139.444 32.3623C138.623 33.5534 137.605 35.0413 136.194 35.5072C135.814 35.5551 135.441 35.3736 135.242 35.0433C134.852 33.2547 135.929 31.7668 136.553 30.2415C138.425 27.0633 140.361 23.5588 143.581 21.2355C144.136 20.9368 145.089 20.8051 145.383 21.5658L145.354 21.9313L139.444 32.3623Z" fill="black"/>
<path d="M130.603 0.859093C127.747 -0.398838 124.038 0.100404 121.282 1.22468C120.362 0.298921 119.182 -0.0332515 117.834 0.0669898C114.027 0.464024 110.844 2.35878 107.727 4.47171C99.9798 10.2661 94.1376 18.4465 91.2818 27.0909C90.2649 30.5699 89.8052 35.4365 93.0876 37.9543C94.8935 39.3439 97.8155 39.0786 99.7519 38.1862C104.542 35.9003 108.323 30.8647 110.057 26.0963C110.68 24.3077 111.24 21.5599 109.796 19.9384C108.908 19.0755 107.334 19.2406 106.29 19.673C101.86 21.5265 99.6662 26.23 99.037 30.6681L99.1013 30.8313C100.414 29.3768 101.957 28.1169 103.699 27.4899C104.057 26 104.478 24.5416 105.372 23.2522C106.258 22.0926 107.408 20.5359 109.017 20.8936C109.539 21.1255 109.738 21.6562 109.771 22.185C109.901 26.2575 107.766 29.6048 105.173 32.6513C103.14 34.6051 100.843 36.9892 97.8545 36.0949C96.7287 35.569 95.9124 34.5409 95.6493 33.3176C95.0883 28.9129 96.9272 25.0389 98.6026 21.3634C102.243 14.4408 107.727 7.51827 114.545 2.94844C116.186 2.18778 117.762 0.896438 119.829 1.42713C119.961 1.46054 120.191 1.55685 120.191 1.75733C117.432 3.28061 114.676 5.93209 112.839 8.63665C111.953 10.2287 110.936 11.7815 111.033 13.7706C111.164 14.4349 111.493 15.1307 112.147 15.3941C113.626 15.858 114.875 14.9302 116.022 14.203C119.226 11.5591 121.305 7.77823 121.833 3.63637C121.964 3.10568 121.601 2.57892 121.866 2.14651C123.242 1.71606 124.788 2.07968 126.031 2.47868C129.678 4.00196 132.849 6.38023 136.356 8.1374C137.209 7.37282 138.01 6.43133 138.863 5.57044L138.96 5.27364C136.182 3.68944 133.558 2.02071 130.603 0.859093ZM114.518 14.2089C113.934 14.4723 113.271 14.7985 112.551 14.5725C112.216 14.4153 111.973 14.1092 111.894 13.745C111.861 11.2606 113.404 9.3403 114.781 7.41802C116.454 5.39944 118.457 3.57544 120.656 2.58482C120.986 2.61627 121.021 3.04475 121.046 3.34351C120.623 7.68337 118.262 11.6262 114.518 14.2089Z" fill="black"/>
<path d="M90.7227 10.4311L90.9175 9.90043C89.8187 9.75891 88.7071 9.74835 87.6058 9.86898L86.8831 10.9618C86.4935 10.6316 86.1273 10.1009 85.6032 9.93581C84.0604 9.47195 82.5506 10.1677 81.3701 11.0601C76.2818 14.8712 73.8526 20.4946 69.2571 24.7401C67.9442 25.7995 66.3351 27.256 64.6286 26.2968C63.7422 25.5695 63.7773 24.3077 63.939 23.2502C65.2252 19.0077 67.6433 15.204 70.9286 12.2551C71.8169 11.693 72.7344 10.8301 73.8838 11.3274C74.3766 11.5593 74.5071 12.1136 74.4409 12.6522C74.5071 13.4384 73.7182 12.9824 73.2916 13.1475C72.3618 13.528 71.6756 14.3437 71.4545 15.3312C71.3883 15.7243 71.4234 16.2274 71.8169 16.4594C72.4714 16.7581 73.1299 16.3257 73.5877 15.8697C74.7701 14.5449 75.7208 12.7249 74.9669 11.0011L74.4409 10.3387C72.1773 8.91571 69.6818 10.4724 67.876 11.8954C65.4467 13.7823 63.6117 16.9311 60.5883 17.2613C61.0831 15.8029 61.7708 14.313 61.8701 12.6581C61.9052 11.5967 61.6403 10.5392 60.6896 10.04C59.5052 9.51126 58.1279 9.94171 57.0779 10.4724C52.613 13.0276 49.1026 17.7252 47.2305 22.2655C46.6734 24.2173 45.787 26.6054 47.1 28.4923C47.7896 29.2785 48.9701 29.3866 49.9208 29.0819C54.5455 27.3542 57.7013 22.3205 60 18.2794C60.8864 18.1812 61.7084 17.7841 62.5325 17.6898C61.2818 19.7772 60.1675 21.9314 59.8052 24.3725C59.5753 26.0295 59.9377 27.6864 61.2818 28.677C64.3052 30.0706 66.9935 27.8515 69.226 25.8663C70.1455 25.0369 71.0649 23.9421 71.9844 23.2129C71.6883 24.3725 71.1623 25.4339 71.1312 26.6918C71.1312 27.6864 71.5578 28.7124 72.4753 29.076C75.1013 29.6067 76.8078 27.2874 78.6467 25.6658L78.713 25.7307C78.45 26.6918 78.0565 28.0893 78.9721 28.8461C79.3617 29.1763 79.8954 29.2392 80.4526 29.2077C83.8987 28.1837 86.3279 24.6379 88.5253 21.8567C89.0201 21.0606 89.7097 20.3314 89.9396 19.4705C89.7448 19.4391 89.511 19.3408 89.3552 19.4705C87.6623 21.5933 86.1916 24.176 83.7662 25.601C83.4701 25.7661 83.0104 25.7661 82.8156 25.4673C82.5857 25.0742 82.7805 24.575 82.913 24.1779L90.7227 10.4311ZM54.7792 24.3725C53.8948 25.1352 53.0084 25.9961 51.7929 25.7307C51.3312 25.6658 51.1052 25.1411 50.9377 24.7479C50.8403 21.9667 52.4493 19.5472 53.8597 17.2279L55.1727 15.4393C55.5351 15.7066 55.6013 16.1704 55.9286 16.5006C56.7818 17.4952 57.8649 17.9905 59.0143 18.2893C57.9439 20.5383 56.513 22.5936 54.7792 24.3725ZM59.474 17.3183C58.2935 17.2534 57.1364 16.7896 56.5519 15.7282C55.9948 14.6688 56.5208 13.4777 57.111 12.6168C57.9974 11.634 59.3766 10.5982 60.5883 11.5574C61.313 12.6502 60.7831 14.0418 60.524 15.1661C60.1948 15.8992 60 16.7247 59.474 17.3203V17.3183ZM81.3351 20.5634C80.1175 22.3874 78.9682 24.573 76.9695 25.6737C76.6753 25.7386 76.1903 25.8388 75.9506 25.5754C75.4929 25.2098 75.5903 24.5141 75.6877 24.0168C76.5429 20.8385 78.6097 18.1556 80.5149 15.4058C81.8279 13.8177 83.2422 11.7303 85.2409 11.1996C85.6375 11.093 86.0527 11.2885 86.2266 11.6635V12.0566L81.3351 20.5634Z" fill="black"/>
<path fill-rule="evenodd" clip-rule="evenodd" d="M95.7097 12.8505L95.9396 12.6834C96.4656 11.7242 97.1552 10.8299 97.4844 9.86878L95.5461 9.77051C95.1214 9.86878 94.5623 9.67223 94.1708 9.93561C93.6097 10.8633 93.0195 11.793 92.624 12.7758C93.6097 12.9448 94.7942 12.8446 95.7097 12.8446" fill="black"/>
<path fill-rule="evenodd" clip-rule="evenodd" d="M7.52726 21.2688H4.90324V29.0699H2.80713V21.2688H0.183105V19.3701H7.52726V21.2688Z" fill="black"/>
<path fill-rule="evenodd" clip-rule="evenodd" d="M17.7799 19.3701V29.0699H15.6838V24.7655H11.3981V29.0699H9.30585V19.3701H11.402V22.8864H15.6877V19.3701H17.7799Z" fill="black"/>
<path fill-rule="evenodd" clip-rule="evenodd" d="M27.45 29.0699H20.0649V19.3701H27.3214L27.0546 21.2157H22.1571V23.1282H25.3247V24.9876H22.1571V27.2243H27.1831L27.45 29.0699Z" fill="black"/>
</svg>
